<mxfile host="Electron" agent="Mozilla/5.0 (Windows NT 10.0; Win64; x64) AppleWebKit/537.36 (KHTML, like Gecko) draw.io/27.0.5 Chrome/134.0.6998.205 Electron/35.3.0 Safari/537.36" version="27.0.5">
  <diagram name="第 1 页" id="3nxANmeQR-iz94rM6ceY">
    <mxGraphModel dx="1213" dy="1997" grid="1" gridSize="10" guides="1" tooltips="1" connect="1" arrows="1" fold="1" page="1" pageScale="1" pageWidth="827" pageHeight="1169" background="none" math="0" shadow="0">
      <root>
        <mxCell id="0" />
        <mxCell id="1" parent="0" />
        <mxCell id="MlaJDnqdPZSA0U_lzP1A-78" style="edgeStyle=orthogonalEdgeStyle;rounded=0;orthogonalLoop=1;jettySize=auto;html=1;entryX=0;entryY=0.5;entryDx=0;entryDy=0;" edge="1" parent="1" source="MlaJDnqdPZSA0U_lzP1A-74" target="MlaJDnqdPZSA0U_lzP1A-1">
          <mxGeometry relative="1" as="geometry">
            <Array as="points">
              <mxPoint x="450" y="520" />
              <mxPoint x="685" y="520" />
            </Array>
          </mxGeometry>
        </mxCell>
        <mxCell id="MlaJDnqdPZSA0U_lzP1A-77" style="edgeStyle=orthogonalEdgeStyle;rounded=0;orthogonalLoop=1;jettySize=auto;html=1;entryX=1;entryY=0.5;entryDx=0;entryDy=0;" edge="1" parent="1" source="MlaJDnqdPZSA0U_lzP1A-74" target="MlaJDnqdPZSA0U_lzP1A-19">
          <mxGeometry relative="1" as="geometry">
            <Array as="points">
              <mxPoint x="450" y="520" />
              <mxPoint x="408" y="520" />
            </Array>
          </mxGeometry>
        </mxCell>
        <mxCell id="MlaJDnqdPZSA0U_lzP1A-76" style="edgeStyle=orthogonalEdgeStyle;rounded=0;orthogonalLoop=1;jettySize=auto;html=1;entryX=1;entryY=0.5;entryDx=0;entryDy=0;" edge="1" parent="1" source="MlaJDnqdPZSA0U_lzP1A-74" target="MlaJDnqdPZSA0U_lzP1A-18">
          <mxGeometry relative="1" as="geometry">
            <Array as="points">
              <mxPoint x="450" y="520" />
              <mxPoint x="287" y="520" />
            </Array>
          </mxGeometry>
        </mxCell>
        <mxCell id="MlaJDnqdPZSA0U_lzP1A-1" value="" style="shape=parallelogram;perimeter=parallelogramPerimeter;whiteSpace=wrap;html=1;fixedSize=1;size=150;rotation=-180;flipH=1;" vertex="1" parent="1">
          <mxGeometry x="100" y="390" width="660" height="60" as="geometry" />
        </mxCell>
        <mxCell id="MlaJDnqdPZSA0U_lzP1A-10" value="&lt;font style=&quot;font-size: 60px;&quot;&gt;......&lt;/font&gt;" style="text;html=1;align=center;verticalAlign=middle;whiteSpace=wrap;rounded=0;" vertex="1" parent="1">
          <mxGeometry x="520" y="307" width="60" height="30" as="geometry" />
        </mxCell>
        <mxCell id="MlaJDnqdPZSA0U_lzP1A-15" value="" style="shape=parallelogram;perimeter=parallelogramPerimeter;whiteSpace=wrap;html=1;fixedSize=1;rotation=90;size=60;" vertex="1" parent="1">
          <mxGeometry x="560" y="247" width="255" height="150" as="geometry" />
        </mxCell>
        <mxCell id="MlaJDnqdPZSA0U_lzP1A-19" value="" style="shape=parallelogram;perimeter=parallelogramPerimeter;whiteSpace=wrap;html=1;fixedSize=1;rotation=90;size=60;" vertex="1" parent="1">
          <mxGeometry x="280" y="247" width="255" height="150" as="geometry" />
        </mxCell>
        <mxCell id="MlaJDnqdPZSA0U_lzP1A-135" value="" style="rounded=0;whiteSpace=wrap;html=1;fillColor=#FF9933;strokeColor=none;" vertex="1" parent="1">
          <mxGeometry x="327.58" y="196" width="10" height="206" as="geometry" />
        </mxCell>
        <mxCell id="MlaJDnqdPZSA0U_lzP1A-18" value="" style="shape=parallelogram;perimeter=parallelogramPerimeter;whiteSpace=wrap;html=1;fixedSize=1;rotation=90;size=60;" vertex="1" parent="1">
          <mxGeometry x="159" y="247" width="255" height="150" as="geometry" />
        </mxCell>
        <mxCell id="MlaJDnqdPZSA0U_lzP1A-136" value="" style="rounded=0;whiteSpace=wrap;html=1;fillColor=#FF9933;strokeColor=none;" vertex="1" parent="1">
          <mxGeometry x="206" y="196" width="10" height="206" as="geometry" />
        </mxCell>
        <mxCell id="MlaJDnqdPZSA0U_lzP1A-17" value="" style="shape=parallelogram;perimeter=parallelogramPerimeter;whiteSpace=wrap;html=1;fixedSize=1;rotation=90;size=55.5;fillColor=#FF9933;" vertex="1" parent="1">
          <mxGeometry x="44.5" y="247" width="255" height="150" as="geometry" />
        </mxCell>
        <mxCell id="MlaJDnqdPZSA0U_lzP1A-21" value="&lt;font face=&quot;Times New Roman&quot; style=&quot;font-size: 30px;&quot;&gt;0&lt;/font&gt;" style="text;html=1;align=center;verticalAlign=middle;whiteSpace=wrap;rounded=0;" vertex="1" parent="1">
          <mxGeometry x="220" y="470" width="60" height="30" as="geometry" />
        </mxCell>
        <mxCell id="MlaJDnqdPZSA0U_lzP1A-22" value="&lt;font face=&quot;Times New Roman&quot; style=&quot;font-size: 30px;&quot;&gt;Δt&lt;/font&gt;" style="text;html=1;align=center;verticalAlign=middle;whiteSpace=wrap;rounded=0;" vertex="1" parent="1">
          <mxGeometry x="330" y="470" width="60" height="30" as="geometry" />
        </mxCell>
        <mxCell id="MlaJDnqdPZSA0U_lzP1A-24" value="&lt;font face=&quot;Times New Roman&quot; style=&quot;font-size: 30px;&quot;&gt;2Δt&lt;/font&gt;" style="text;html=1;align=center;verticalAlign=middle;whiteSpace=wrap;rounded=0;" vertex="1" parent="1">
          <mxGeometry x="450" y="470" width="60" height="30" as="geometry" />
        </mxCell>
        <mxCell id="MlaJDnqdPZSA0U_lzP1A-25" value="&lt;font face=&quot;Times New Roman&quot; style=&quot;font-size: 30px;&quot;&gt;1&lt;/font&gt;" style="text;html=1;align=center;verticalAlign=middle;whiteSpace=wrap;rounded=0;" vertex="1" parent="1">
          <mxGeometry x="730" y="470" width="60" height="30" as="geometry" />
        </mxCell>
        <mxCell id="MlaJDnqdPZSA0U_lzP1A-70" value="" style="shape=singleArrow;direction=north;whiteSpace=wrap;html=1;arrowWidth=0.43333333333333335;arrowSize=0.2833331298828125;" vertex="1" parent="1">
          <mxGeometry x="160" y="80" width="60" height="100" as="geometry" />
        </mxCell>
        <mxCell id="MlaJDnqdPZSA0U_lzP1A-72" value="" style="group" vertex="1" connectable="0" parent="1">
          <mxGeometry x="70" y="-210" width="257.58000000000004" height="274.24" as="geometry" />
        </mxCell>
        <mxCell id="MlaJDnqdPZSA0U_lzP1A-26" value="" style="shape=parallelogram;perimeter=parallelogramPerimeter;whiteSpace=wrap;html=1;fixedSize=1;rotation=90;size=1.5799999999999272;" vertex="1" parent="MlaJDnqdPZSA0U_lzP1A-72">
          <mxGeometry x="-15.84" y="-2.27" width="273.42" height="272.35" as="geometry" />
        </mxCell>
        <mxCell id="MlaJDnqdPZSA0U_lzP1A-27" value="" style="ellipse;whiteSpace=wrap;html=1;aspect=fixed;" vertex="1" parent="MlaJDnqdPZSA0U_lzP1A-72">
          <mxGeometry x="40.35338611555646" y="45.36997327928152" width="27.173012827237027" height="27.173012827237027" as="geometry" />
        </mxCell>
        <mxCell id="MlaJDnqdPZSA0U_lzP1A-28" value="" style="ellipse;whiteSpace=wrap;html=1;aspect=fixed;" vertex="1" parent="MlaJDnqdPZSA0U_lzP1A-72">
          <mxGeometry x="40.35338611555646" y="97.93394320520312" width="27.173012827237027" height="27.173012827237027" as="geometry" />
        </mxCell>
        <mxCell id="MlaJDnqdPZSA0U_lzP1A-29" value="" style="ellipse;whiteSpace=wrap;html=1;aspect=fixed;" vertex="1" parent="MlaJDnqdPZSA0U_lzP1A-72">
          <mxGeometry x="40.35338611555646" y="150.49791313112476" width="27.173012827237027" height="27.173012827237027" as="geometry" />
        </mxCell>
        <mxCell id="MlaJDnqdPZSA0U_lzP1A-31" value="" style="ellipse;whiteSpace=wrap;html=1;aspect=fixed;" vertex="1" parent="MlaJDnqdPZSA0U_lzP1A-72">
          <mxGeometry x="40.35338611555646" y="203.06188305704637" width="27.173012827237027" height="27.173012827237027" as="geometry" />
        </mxCell>
        <mxCell id="MlaJDnqdPZSA0U_lzP1A-32" value="" style="ellipse;whiteSpace=wrap;html=1;aspect=fixed;" vertex="1" parent="MlaJDnqdPZSA0U_lzP1A-72">
          <mxGeometry x="145.46492427795533" y="19.087988316320704" width="27.173012827237027" height="27.173012827237027" as="geometry" />
        </mxCell>
        <mxCell id="MlaJDnqdPZSA0U_lzP1A-33" value="" style="ellipse;whiteSpace=wrap;html=1;aspect=fixed;" vertex="1" parent="MlaJDnqdPZSA0U_lzP1A-72">
          <mxGeometry x="145.46492427795533" y="71.65195824224233" width="27.173012827237027" height="27.173012827237027" as="geometry" />
        </mxCell>
        <mxCell id="MlaJDnqdPZSA0U_lzP1A-34" value="" style="ellipse;whiteSpace=wrap;html=1;aspect=fixed;" vertex="1" parent="MlaJDnqdPZSA0U_lzP1A-72">
          <mxGeometry x="145.46492427795533" y="124.21592816816393" width="27.173012827237027" height="27.173012827237027" as="geometry" />
        </mxCell>
        <mxCell id="MlaJDnqdPZSA0U_lzP1A-35" value="" style="ellipse;whiteSpace=wrap;html=1;aspect=fixed;" vertex="1" parent="MlaJDnqdPZSA0U_lzP1A-72">
          <mxGeometry x="145.46492427795533" y="176.77989809408555" width="27.173012827237027" height="27.173012827237027" as="geometry" />
        </mxCell>
        <mxCell id="MlaJDnqdPZSA0U_lzP1A-36" value="" style="ellipse;whiteSpace=wrap;html=1;aspect=fixed;" vertex="1" parent="MlaJDnqdPZSA0U_lzP1A-72">
          <mxGeometry x="145.46492427795533" y="226.19002982445187" width="27.173012827237027" height="27.173012827237027" as="geometry" />
        </mxCell>
        <mxCell id="MlaJDnqdPZSA0U_lzP1A-38" value="" style="endArrow=classic;html=1;rounded=0;entryX=0;entryY=0.5;entryDx=0;entryDy=0;exitX=0.5;exitY=1;exitDx=0;exitDy=0;" edge="1" parent="MlaJDnqdPZSA0U_lzP1A-72" source="MlaJDnqdPZSA0U_lzP1A-26" target="MlaJDnqdPZSA0U_lzP1A-27">
          <mxGeometry width="50" height="50" relative="1" as="geometry">
            <mxPoint x="-362.57417684030605" y="224.08747102741498" as="sourcePoint" />
            <mxPoint x="-274.98122837164027" y="171.52350110149337" as="targetPoint" />
          </mxGeometry>
        </mxCell>
        <mxCell id="MlaJDnqdPZSA0U_lzP1A-39" value="" style="endArrow=classic;html=1;rounded=0;entryX=0;entryY=0.5;entryDx=0;entryDy=0;exitX=0.5;exitY=1;exitDx=0;exitDy=0;" edge="1" parent="MlaJDnqdPZSA0U_lzP1A-72" source="MlaJDnqdPZSA0U_lzP1A-26" target="MlaJDnqdPZSA0U_lzP1A-28">
          <mxGeometry width="50" height="50" relative="1" as="geometry">
            <mxPoint x="10.571783636210096" y="145.24151613853257" as="sourcePoint" />
            <mxPoint x="57.871975809289616" y="71.65195824224233" as="targetPoint" />
          </mxGeometry>
        </mxCell>
        <mxCell id="MlaJDnqdPZSA0U_lzP1A-40" value="" style="endArrow=classic;html=1;rounded=0;entryX=0;entryY=0.5;entryDx=0;entryDy=0;exitX=0.5;exitY=1;exitDx=0;exitDy=0;" edge="1" parent="MlaJDnqdPZSA0U_lzP1A-72" source="MlaJDnqdPZSA0U_lzP1A-26" target="MlaJDnqdPZSA0U_lzP1A-29">
          <mxGeometry width="50" height="50" relative="1" as="geometry">
            <mxPoint x="28.090373329943255" y="155.75431012371692" as="sourcePoint" />
            <mxPoint x="75.39056550302276" y="82.16475222742665" as="targetPoint" />
          </mxGeometry>
        </mxCell>
        <mxCell id="MlaJDnqdPZSA0U_lzP1A-41" value="" style="endArrow=classic;html=1;rounded=0;entryX=0;entryY=0.5;entryDx=0;entryDy=0;exitX=0.5;exitY=1;exitDx=0;exitDy=0;" edge="1" parent="MlaJDnqdPZSA0U_lzP1A-72" source="MlaJDnqdPZSA0U_lzP1A-26" target="MlaJDnqdPZSA0U_lzP1A-31">
          <mxGeometry width="50" height="50" relative="1" as="geometry">
            <mxPoint x="45.6089630236764" y="166.2671041089012" as="sourcePoint" />
            <mxPoint x="92.9091551967559" y="92.67754621261096" as="targetPoint" />
          </mxGeometry>
        </mxCell>
        <mxCell id="MlaJDnqdPZSA0U_lzP1A-43" value="" style="endArrow=classic;html=1;rounded=0;exitX=1;exitY=0.5;exitDx=0;exitDy=0;entryX=0;entryY=0.5;entryDx=0;entryDy=0;" edge="1" parent="MlaJDnqdPZSA0U_lzP1A-72" source="MlaJDnqdPZSA0U_lzP1A-27" target="MlaJDnqdPZSA0U_lzP1A-32">
          <mxGeometry width="50" height="50" relative="1" as="geometry">
            <mxPoint x="-432.64853561523864" y="192.54908907186203" as="sourcePoint" />
            <mxPoint x="-345.0555871465729" y="139.98511914594042" as="targetPoint" />
          </mxGeometry>
        </mxCell>
        <mxCell id="MlaJDnqdPZSA0U_lzP1A-44" value="" style="endArrow=classic;html=1;rounded=0;exitX=1;exitY=0.5;exitDx=0;exitDy=0;entryX=0;entryY=0.5;entryDx=0;entryDy=0;" edge="1" parent="MlaJDnqdPZSA0U_lzP1A-72" source="MlaJDnqdPZSA0U_lzP1A-27" target="MlaJDnqdPZSA0U_lzP1A-33">
          <mxGeometry width="50" height="50" relative="1" as="geometry">
            <mxPoint x="110.42774489048905" y="71.65195824224233" as="sourcePoint" />
            <mxPoint x="162.98351397168852" y="45.36997327928152" as="targetPoint" />
          </mxGeometry>
        </mxCell>
        <mxCell id="MlaJDnqdPZSA0U_lzP1A-45" value="" style="endArrow=classic;html=1;rounded=0;exitX=1;exitY=0.5;exitDx=0;exitDy=0;entryX=0;entryY=0.5;entryDx=0;entryDy=0;" edge="1" parent="MlaJDnqdPZSA0U_lzP1A-72" source="MlaJDnqdPZSA0U_lzP1A-27" target="MlaJDnqdPZSA0U_lzP1A-34">
          <mxGeometry width="50" height="50" relative="1" as="geometry">
            <mxPoint x="127.94633458422223" y="82.16475222742665" as="sourcePoint" />
            <mxPoint x="180.50210366542166" y="55.88276726446583" as="targetPoint" />
          </mxGeometry>
        </mxCell>
        <mxCell id="MlaJDnqdPZSA0U_lzP1A-46" value="" style="endArrow=classic;html=1;rounded=0;exitX=1;exitY=0.5;exitDx=0;exitDy=0;entryX=0;entryY=0.5;entryDx=0;entryDy=0;" edge="1" parent="MlaJDnqdPZSA0U_lzP1A-72" source="MlaJDnqdPZSA0U_lzP1A-27" target="MlaJDnqdPZSA0U_lzP1A-35">
          <mxGeometry width="50" height="50" relative="1" as="geometry">
            <mxPoint x="145.46492427795533" y="92.67754621261096" as="sourcePoint" />
            <mxPoint x="198.02069335915485" y="66.39556124965016" as="targetPoint" />
          </mxGeometry>
        </mxCell>
        <mxCell id="MlaJDnqdPZSA0U_lzP1A-47" value="" style="endArrow=classic;html=1;rounded=0;exitX=1;exitY=0.5;exitDx=0;exitDy=0;entryX=0;entryY=0.5;entryDx=0;entryDy=0;" edge="1" parent="MlaJDnqdPZSA0U_lzP1A-72" source="MlaJDnqdPZSA0U_lzP1A-27" target="MlaJDnqdPZSA0U_lzP1A-36">
          <mxGeometry width="50" height="50" relative="1" as="geometry">
            <mxPoint x="162.98351397168852" y="103.1903401977953" as="sourcePoint" />
            <mxPoint x="215.53928305288795" y="76.90835523483447" as="targetPoint" />
          </mxGeometry>
        </mxCell>
        <mxCell id="MlaJDnqdPZSA0U_lzP1A-48" value="" style="endArrow=classic;html=1;rounded=0;exitX=1;exitY=0.5;exitDx=0;exitDy=0;entryX=0.5;entryY=0;entryDx=0;entryDy=0;" edge="1" parent="MlaJDnqdPZSA0U_lzP1A-72" source="MlaJDnqdPZSA0U_lzP1A-32" target="MlaJDnqdPZSA0U_lzP1A-26">
          <mxGeometry width="50" height="50" relative="1" as="geometry">
            <mxPoint x="338.16941090902" y="161.01070711630905" as="sourcePoint" />
            <mxPoint x="425.7623593776857" y="108.44673719038745" as="targetPoint" />
          </mxGeometry>
        </mxCell>
        <mxCell id="MlaJDnqdPZSA0U_lzP1A-49" value="" style="endArrow=classic;html=1;rounded=0;exitX=1;exitY=0.5;exitDx=0;exitDy=0;entryX=0.5;entryY=0;entryDx=0;entryDy=0;" edge="1" parent="MlaJDnqdPZSA0U_lzP1A-72" source="MlaJDnqdPZSA0U_lzP1A-35" target="MlaJDnqdPZSA0U_lzP1A-26">
          <mxGeometry width="50" height="50" relative="1" as="geometry">
            <mxPoint x="425.7623593776857" y="37.485377790393265" as="sourcePoint" />
            <mxPoint x="483.5737053670052" y="137.35692064964434" as="targetPoint" />
          </mxGeometry>
        </mxCell>
        <mxCell id="MlaJDnqdPZSA0U_lzP1A-50" value="" style="endArrow=classic;html=1;rounded=0;exitX=1;exitY=0.5;exitDx=0;exitDy=0;entryX=0.5;entryY=0;entryDx=0;entryDy=0;" edge="1" parent="MlaJDnqdPZSA0U_lzP1A-72" source="MlaJDnqdPZSA0U_lzP1A-34" target="MlaJDnqdPZSA0U_lzP1A-26">
          <mxGeometry width="50" height="50" relative="1" as="geometry">
            <mxPoint x="373.2065902964863" y="63.76736275335408" as="sourcePoint" />
            <mxPoint x="250.57646244035425" y="129.47232516075607" as="targetPoint" />
          </mxGeometry>
        </mxCell>
        <mxCell id="MlaJDnqdPZSA0U_lzP1A-51" value="" style="endArrow=classic;html=1;rounded=0;exitX=1;exitY=0.5;exitDx=0;exitDy=0;entryX=0.5;entryY=0;entryDx=0;entryDy=0;" edge="1" parent="MlaJDnqdPZSA0U_lzP1A-72" source="MlaJDnqdPZSA0U_lzP1A-36" target="MlaJDnqdPZSA0U_lzP1A-26">
          <mxGeometry width="50" height="50" relative="1" as="geometry">
            <mxPoint x="478.3181284588852" y="63.76736275335408" as="sourcePoint" />
            <mxPoint x="536.1294744482046" y="163.63890561260516" as="targetPoint" />
          </mxGeometry>
        </mxCell>
        <mxCell id="MlaJDnqdPZSA0U_lzP1A-52" value="" style="endArrow=classic;html=1;rounded=0;exitX=1;exitY=0.5;exitDx=0;exitDy=0;entryX=0.5;entryY=0;entryDx=0;entryDy=0;" edge="1" parent="MlaJDnqdPZSA0U_lzP1A-72" source="MlaJDnqdPZSA0U_lzP1A-33" target="MlaJDnqdPZSA0U_lzP1A-26">
          <mxGeometry width="50" height="50" relative="1" as="geometry">
            <mxPoint x="268.09505213408744" y="76.90835523483447" as="sourcePoint" />
            <mxPoint x="325.90639812340686" y="176.77989809408555" as="targetPoint" />
          </mxGeometry>
        </mxCell>
        <mxCell id="MlaJDnqdPZSA0U_lzP1A-54" value="" style="endArrow=classic;html=1;rounded=0;exitX=1;exitY=0.5;exitDx=0;exitDy=0;entryX=0;entryY=0.5;entryDx=0;entryDy=0;" edge="1" parent="MlaJDnqdPZSA0U_lzP1A-72" source="MlaJDnqdPZSA0U_lzP1A-31" target="MlaJDnqdPZSA0U_lzP1A-32">
          <mxGeometry width="50" height="50" relative="1" as="geometry">
            <mxPoint x="443.280949071419" y="171.52350110149337" as="sourcePoint" />
            <mxPoint x="530.8738975400847" y="118.95953117557177" as="targetPoint" />
          </mxGeometry>
        </mxCell>
        <mxCell id="MlaJDnqdPZSA0U_lzP1A-55" value="" style="endArrow=classic;html=1;rounded=0;entryX=0;entryY=0.5;entryDx=0;entryDy=0;exitX=1;exitY=0.5;exitDx=0;exitDy=0;" edge="1" parent="MlaJDnqdPZSA0U_lzP1A-72" source="MlaJDnqdPZSA0U_lzP1A-31" target="MlaJDnqdPZSA0U_lzP1A-36">
          <mxGeometry width="50" height="50" relative="1" as="geometry">
            <mxPoint x="-432.64853561523864" y="213.5746770422307" as="sourcePoint" />
            <mxPoint x="-345.0555871465729" y="161.01070711630905" as="targetPoint" />
          </mxGeometry>
        </mxCell>
        <mxCell id="MlaJDnqdPZSA0U_lzP1A-56" value="" style="endArrow=classic;html=1;rounded=0;exitX=1;exitY=0.5;exitDx=0;exitDy=0;entryX=0;entryY=0.5;entryDx=0;entryDy=0;" edge="1" parent="MlaJDnqdPZSA0U_lzP1A-72" source="MlaJDnqdPZSA0U_lzP1A-29" target="MlaJDnqdPZSA0U_lzP1A-35">
          <mxGeometry width="50" height="50" relative="1" as="geometry">
            <mxPoint x="-467.6857150027048" y="213.5746770422307" as="sourcePoint" />
            <mxPoint x="-380.0927665340392" y="161.01070711630905" as="targetPoint" />
          </mxGeometry>
        </mxCell>
        <mxCell id="MlaJDnqdPZSA0U_lzP1A-57" value="" style="endArrow=classic;html=1;rounded=0;exitX=1;exitY=0.5;exitDx=0;exitDy=0;entryX=0;entryY=0.5;entryDx=0;entryDy=0;" edge="1" parent="MlaJDnqdPZSA0U_lzP1A-72" source="MlaJDnqdPZSA0U_lzP1A-28" target="MlaJDnqdPZSA0U_lzP1A-34">
          <mxGeometry width="50" height="50" relative="1" as="geometry">
            <mxPoint x="-362.57417684030605" y="224.08747102741498" as="sourcePoint" />
            <mxPoint x="-274.98122837164027" y="171.52350110149337" as="targetPoint" />
          </mxGeometry>
        </mxCell>
        <mxCell id="MlaJDnqdPZSA0U_lzP1A-58" value="" style="endArrow=classic;html=1;rounded=0;entryX=0;entryY=0.5;entryDx=0;entryDy=0;exitX=1;exitY=0.5;exitDx=0;exitDy=0;" edge="1" parent="MlaJDnqdPZSA0U_lzP1A-72" source="MlaJDnqdPZSA0U_lzP1A-28" target="MlaJDnqdPZSA0U_lzP1A-33">
          <mxGeometry width="50" height="50" relative="1" as="geometry">
            <mxPoint x="-450.1671253089718" y="224.08747102741498" as="sourcePoint" />
            <mxPoint x="-362.57417684030605" y="171.52350110149337" as="targetPoint" />
          </mxGeometry>
        </mxCell>
        <mxCell id="MlaJDnqdPZSA0U_lzP1A-59" value="" style="endArrow=classic;html=1;rounded=0;exitX=1;exitY=0.5;exitDx=0;exitDy=0;entryX=0;entryY=0.5;entryDx=0;entryDy=0;" edge="1" parent="MlaJDnqdPZSA0U_lzP1A-72" source="MlaJDnqdPZSA0U_lzP1A-28" target="MlaJDnqdPZSA0U_lzP1A-32">
          <mxGeometry width="50" height="50" relative="1" as="geometry">
            <mxPoint x="548.3924872338177" y="108.44673719038745" as="sourcePoint" />
            <mxPoint x="635.9854357024836" y="55.88276726446583" as="targetPoint" />
          </mxGeometry>
        </mxCell>
        <mxCell id="MlaJDnqdPZSA0U_lzP1A-60" value="" style="endArrow=classic;html=1;rounded=0;exitX=1;exitY=0.5;exitDx=0;exitDy=0;entryX=0;entryY=0.5;entryDx=0;entryDy=0;" edge="1" parent="MlaJDnqdPZSA0U_lzP1A-72" source="MlaJDnqdPZSA0U_lzP1A-29" target="MlaJDnqdPZSA0U_lzP1A-36">
          <mxGeometry width="50" height="50" relative="1" as="geometry">
            <mxPoint x="-345.0555871465729" y="234.60026501259932" as="sourcePoint" />
            <mxPoint x="-257.46263867790714" y="182.0362950866777" as="targetPoint" />
          </mxGeometry>
        </mxCell>
        <mxCell id="MlaJDnqdPZSA0U_lzP1A-61" value="" style="endArrow=classic;html=1;rounded=0;entryX=0;entryY=0.5;entryDx=0;entryDy=0;exitX=1;exitY=0.5;exitDx=0;exitDy=0;" edge="1" parent="MlaJDnqdPZSA0U_lzP1A-72" source="MlaJDnqdPZSA0U_lzP1A-28" target="MlaJDnqdPZSA0U_lzP1A-35">
          <mxGeometry width="50" height="50" relative="1" as="geometry">
            <mxPoint x="-292.4998180653734" y="224.08747102741498" as="sourcePoint" />
            <mxPoint x="-204.90686959670765" y="171.52350110149337" as="targetPoint" />
          </mxGeometry>
        </mxCell>
        <mxCell id="MlaJDnqdPZSA0U_lzP1A-62" value="" style="endArrow=classic;html=1;rounded=0;exitX=1;exitY=0.5;exitDx=0;exitDy=0;entryX=0;entryY=0.5;entryDx=0;entryDy=0;" edge="1" parent="MlaJDnqdPZSA0U_lzP1A-72" source="MlaJDnqdPZSA0U_lzP1A-28" target="MlaJDnqdPZSA0U_lzP1A-36">
          <mxGeometry width="50" height="50" relative="1" as="geometry">
            <mxPoint x="-380.0927665340392" y="276.65144095333665" as="sourcePoint" />
            <mxPoint x="-292.4998180653734" y="224.08747102741498" as="targetPoint" />
          </mxGeometry>
        </mxCell>
        <mxCell id="MlaJDnqdPZSA0U_lzP1A-63" value="" style="endArrow=classic;html=1;rounded=0;entryX=0;entryY=0.5;entryDx=0;entryDy=0;exitX=1;exitY=0.5;exitDx=0;exitDy=0;" edge="1" parent="MlaJDnqdPZSA0U_lzP1A-72" source="MlaJDnqdPZSA0U_lzP1A-29" target="MlaJDnqdPZSA0U_lzP1A-34">
          <mxGeometry width="50" height="50" relative="1" as="geometry">
            <mxPoint x="-467.6857150027048" y="276.65144095333665" as="sourcePoint" />
            <mxPoint x="-380.0927665340392" y="224.08747102741498" as="targetPoint" />
          </mxGeometry>
        </mxCell>
        <mxCell id="MlaJDnqdPZSA0U_lzP1A-64" value="" style="endArrow=classic;html=1;rounded=0;entryX=0;entryY=0.5;entryDx=0;entryDy=0;exitX=1;exitY=0.5;exitDx=0;exitDy=0;" edge="1" parent="MlaJDnqdPZSA0U_lzP1A-72" source="MlaJDnqdPZSA0U_lzP1A-29" target="MlaJDnqdPZSA0U_lzP1A-33">
          <mxGeometry width="50" height="50" relative="1" as="geometry">
            <mxPoint x="-327.5369974528398" y="224.08747102741498" as="sourcePoint" />
            <mxPoint x="-239.944048984174" y="171.52350110149337" as="targetPoint" />
          </mxGeometry>
        </mxCell>
        <mxCell id="MlaJDnqdPZSA0U_lzP1A-65" value="" style="endArrow=classic;html=1;rounded=0;entryX=0;entryY=0.5;entryDx=0;entryDy=0;exitX=1;exitY=0.5;exitDx=0;exitDy=0;" edge="1" parent="MlaJDnqdPZSA0U_lzP1A-72" source="MlaJDnqdPZSA0U_lzP1A-29" target="MlaJDnqdPZSA0U_lzP1A-32">
          <mxGeometry width="50" height="50" relative="1" as="geometry">
            <mxPoint x="-345.0555871465729" y="234.60026501259932" as="sourcePoint" />
            <mxPoint x="-257.46263867790714" y="182.0362950866777" as="targetPoint" />
          </mxGeometry>
        </mxCell>
        <mxCell id="MlaJDnqdPZSA0U_lzP1A-66" value="" style="endArrow=classic;html=1;rounded=0;entryX=0;entryY=0.5;entryDx=0;entryDy=0;exitX=1;exitY=0.5;exitDx=0;exitDy=0;" edge="1" parent="MlaJDnqdPZSA0U_lzP1A-72" source="MlaJDnqdPZSA0U_lzP1A-31" target="MlaJDnqdPZSA0U_lzP1A-35">
          <mxGeometry width="50" height="50" relative="1" as="geometry">
            <mxPoint x="-257.46263867790714" y="308.1898229088896" as="sourcePoint" />
            <mxPoint x="-169.86969020924133" y="255.62585298296798" as="targetPoint" />
          </mxGeometry>
        </mxCell>
        <mxCell id="MlaJDnqdPZSA0U_lzP1A-67" value="" style="endArrow=classic;html=1;rounded=0;exitX=1;exitY=0.5;exitDx=0;exitDy=0;entryX=0;entryY=0.5;entryDx=0;entryDy=0;" edge="1" parent="MlaJDnqdPZSA0U_lzP1A-72" source="MlaJDnqdPZSA0U_lzP1A-31" target="MlaJDnqdPZSA0U_lzP1A-34">
          <mxGeometry width="50" height="50" relative="1" as="geometry">
            <mxPoint x="548.3924872338177" y="203.06188305704637" as="sourcePoint" />
            <mxPoint x="635.9854357024836" y="150.49791313112476" as="targetPoint" />
          </mxGeometry>
        </mxCell>
        <mxCell id="MlaJDnqdPZSA0U_lzP1A-68" value="" style="endArrow=classic;html=1;rounded=0;exitX=1;exitY=0.5;exitDx=0;exitDy=0;entryX=0;entryY=0.5;entryDx=0;entryDy=0;" edge="1" parent="MlaJDnqdPZSA0U_lzP1A-72" source="MlaJDnqdPZSA0U_lzP1A-31" target="MlaJDnqdPZSA0U_lzP1A-33">
          <mxGeometry width="50" height="50" relative="1" as="geometry">
            <mxPoint x="495.8367181526184" y="192.54908907186203" as="sourcePoint" />
            <mxPoint x="583.429666621284" y="139.98511914594042" as="targetPoint" />
          </mxGeometry>
        </mxCell>
        <mxCell id="MlaJDnqdPZSA0U_lzP1A-125" style="edgeStyle=orthogonalEdgeStyle;rounded=0;orthogonalLoop=1;jettySize=auto;html=1;entryX=1;entryY=0.5;entryDx=0;entryDy=0;" edge="1" parent="1" source="MlaJDnqdPZSA0U_lzP1A-74" target="MlaJDnqdPZSA0U_lzP1A-17">
          <mxGeometry relative="1" as="geometry">
            <Array as="points">
              <mxPoint x="450" y="520" />
              <mxPoint x="172" y="520" />
            </Array>
          </mxGeometry>
        </mxCell>
        <mxCell id="MlaJDnqdPZSA0U_lzP1A-74" value="&lt;font face=&quot;宋体&quot; style=&quot;font-size: 25px;&quot;&gt;轻量级&lt;/font&gt;&lt;font face=&quot;Times New Roman&quot; style=&quot;font-size: 25px;&quot;&gt;Transformer&lt;/font&gt;" style="rounded=1;whiteSpace=wrap;html=1;" vertex="1" parent="1">
          <mxGeometry x="170" y="585" width="560" height="75" as="geometry" />
        </mxCell>
        <mxCell id="MlaJDnqdPZSA0U_lzP1A-80" value="" style="shape=singleArrow;whiteSpace=wrap;html=1;" vertex="1" parent="1">
          <mxGeometry x="480" y="540" width="100" height="35" as="geometry" />
        </mxCell>
        <mxCell id="MlaJDnqdPZSA0U_lzP1A-81" value="" style="shape=singleArrow;direction=north;whiteSpace=wrap;html=1;arrowWidth=0.43333333333333335;arrowSize=0.2833331298828125;" vertex="1" parent="1">
          <mxGeometry x="670" y="80" width="60" height="100" as="geometry" />
        </mxCell>
        <mxCell id="MlaJDnqdPZSA0U_lzP1A-82" value="" style="group" vertex="1" connectable="0" parent="1">
          <mxGeometry x="580" y="-210" width="257.58000000000004" height="274.24" as="geometry" />
        </mxCell>
        <mxCell id="MlaJDnqdPZSA0U_lzP1A-83" value="" style="shape=parallelogram;perimeter=parallelogramPerimeter;whiteSpace=wrap;html=1;fixedSize=1;rotation=90;size=1.5799999999999272;" vertex="1" parent="MlaJDnqdPZSA0U_lzP1A-82">
          <mxGeometry x="-15.84" y="-2.27" width="273.42" height="272.35" as="geometry" />
        </mxCell>
        <mxCell id="MlaJDnqdPZSA0U_lzP1A-84" value="" style="ellipse;whiteSpace=wrap;html=1;aspect=fixed;" vertex="1" parent="MlaJDnqdPZSA0U_lzP1A-82">
          <mxGeometry x="40.35338611555646" y="45.36997327928152" width="27.173012827237027" height="27.173012827237027" as="geometry" />
        </mxCell>
        <mxCell id="MlaJDnqdPZSA0U_lzP1A-85" value="" style="ellipse;whiteSpace=wrap;html=1;aspect=fixed;" vertex="1" parent="MlaJDnqdPZSA0U_lzP1A-82">
          <mxGeometry x="40.35338611555646" y="97.93394320520312" width="27.173012827237027" height="27.173012827237027" as="geometry" />
        </mxCell>
        <mxCell id="MlaJDnqdPZSA0U_lzP1A-86" value="" style="ellipse;whiteSpace=wrap;html=1;aspect=fixed;" vertex="1" parent="MlaJDnqdPZSA0U_lzP1A-82">
          <mxGeometry x="40.35338611555646" y="150.49791313112476" width="27.173012827237027" height="27.173012827237027" as="geometry" />
        </mxCell>
        <mxCell id="MlaJDnqdPZSA0U_lzP1A-87" value="" style="ellipse;whiteSpace=wrap;html=1;aspect=fixed;" vertex="1" parent="MlaJDnqdPZSA0U_lzP1A-82">
          <mxGeometry x="40.35338611555646" y="203.06188305704637" width="27.173012827237027" height="27.173012827237027" as="geometry" />
        </mxCell>
        <mxCell id="MlaJDnqdPZSA0U_lzP1A-88" value="" style="ellipse;whiteSpace=wrap;html=1;aspect=fixed;" vertex="1" parent="MlaJDnqdPZSA0U_lzP1A-82">
          <mxGeometry x="145.46492427795533" y="19.087988316320704" width="27.173012827237027" height="27.173012827237027" as="geometry" />
        </mxCell>
        <mxCell id="MlaJDnqdPZSA0U_lzP1A-89" value="" style="ellipse;whiteSpace=wrap;html=1;aspect=fixed;" vertex="1" parent="MlaJDnqdPZSA0U_lzP1A-82">
          <mxGeometry x="145.46492427795533" y="71.65195824224233" width="27.173012827237027" height="27.173012827237027" as="geometry" />
        </mxCell>
        <mxCell id="MlaJDnqdPZSA0U_lzP1A-90" value="" style="ellipse;whiteSpace=wrap;html=1;aspect=fixed;" vertex="1" parent="MlaJDnqdPZSA0U_lzP1A-82">
          <mxGeometry x="145.46492427795533" y="124.21592816816393" width="27.173012827237027" height="27.173012827237027" as="geometry" />
        </mxCell>
        <mxCell id="MlaJDnqdPZSA0U_lzP1A-91" value="" style="ellipse;whiteSpace=wrap;html=1;aspect=fixed;" vertex="1" parent="MlaJDnqdPZSA0U_lzP1A-82">
          <mxGeometry x="145.46492427795533" y="176.77989809408555" width="27.173012827237027" height="27.173012827237027" as="geometry" />
        </mxCell>
        <mxCell id="MlaJDnqdPZSA0U_lzP1A-92" value="" style="ellipse;whiteSpace=wrap;html=1;aspect=fixed;" vertex="1" parent="MlaJDnqdPZSA0U_lzP1A-82">
          <mxGeometry x="145.46492427795533" y="226.19002982445187" width="27.173012827237027" height="27.173012827237027" as="geometry" />
        </mxCell>
        <mxCell id="MlaJDnqdPZSA0U_lzP1A-93" value="" style="endArrow=classic;html=1;rounded=0;entryX=0;entryY=0.5;entryDx=0;entryDy=0;exitX=0.5;exitY=1;exitDx=0;exitDy=0;" edge="1" parent="MlaJDnqdPZSA0U_lzP1A-82" source="MlaJDnqdPZSA0U_lzP1A-83" target="MlaJDnqdPZSA0U_lzP1A-84">
          <mxGeometry width="50" height="50" relative="1" as="geometry">
            <mxPoint x="-362.57417684030605" y="224.08747102741498" as="sourcePoint" />
            <mxPoint x="-274.98122837164027" y="171.52350110149337" as="targetPoint" />
          </mxGeometry>
        </mxCell>
        <mxCell id="MlaJDnqdPZSA0U_lzP1A-94" value="" style="endArrow=classic;html=1;rounded=0;entryX=0;entryY=0.5;entryDx=0;entryDy=0;exitX=0.5;exitY=1;exitDx=0;exitDy=0;" edge="1" parent="MlaJDnqdPZSA0U_lzP1A-82" source="MlaJDnqdPZSA0U_lzP1A-83" target="MlaJDnqdPZSA0U_lzP1A-85">
          <mxGeometry width="50" height="50" relative="1" as="geometry">
            <mxPoint x="10.571783636210096" y="145.24151613853257" as="sourcePoint" />
            <mxPoint x="57.871975809289616" y="71.65195824224233" as="targetPoint" />
          </mxGeometry>
        </mxCell>
        <mxCell id="MlaJDnqdPZSA0U_lzP1A-95" value="" style="endArrow=classic;html=1;rounded=0;entryX=0;entryY=0.5;entryDx=0;entryDy=0;exitX=0.5;exitY=1;exitDx=0;exitDy=0;" edge="1" parent="MlaJDnqdPZSA0U_lzP1A-82" source="MlaJDnqdPZSA0U_lzP1A-83" target="MlaJDnqdPZSA0U_lzP1A-86">
          <mxGeometry width="50" height="50" relative="1" as="geometry">
            <mxPoint x="28.090373329943255" y="155.75431012371692" as="sourcePoint" />
            <mxPoint x="75.39056550302276" y="82.16475222742665" as="targetPoint" />
          </mxGeometry>
        </mxCell>
        <mxCell id="MlaJDnqdPZSA0U_lzP1A-96" value="" style="endArrow=classic;html=1;rounded=0;entryX=0;entryY=0.5;entryDx=0;entryDy=0;exitX=0.5;exitY=1;exitDx=0;exitDy=0;" edge="1" parent="MlaJDnqdPZSA0U_lzP1A-82" source="MlaJDnqdPZSA0U_lzP1A-83" target="MlaJDnqdPZSA0U_lzP1A-87">
          <mxGeometry width="50" height="50" relative="1" as="geometry">
            <mxPoint x="45.6089630236764" y="166.2671041089012" as="sourcePoint" />
            <mxPoint x="92.9091551967559" y="92.67754621261096" as="targetPoint" />
          </mxGeometry>
        </mxCell>
        <mxCell id="MlaJDnqdPZSA0U_lzP1A-97" value="" style="endArrow=classic;html=1;rounded=0;exitX=1;exitY=0.5;exitDx=0;exitDy=0;entryX=0;entryY=0.5;entryDx=0;entryDy=0;" edge="1" parent="MlaJDnqdPZSA0U_lzP1A-82" source="MlaJDnqdPZSA0U_lzP1A-84" target="MlaJDnqdPZSA0U_lzP1A-88">
          <mxGeometry width="50" height="50" relative="1" as="geometry">
            <mxPoint x="-432.64853561523864" y="192.54908907186203" as="sourcePoint" />
            <mxPoint x="-345.0555871465729" y="139.98511914594042" as="targetPoint" />
          </mxGeometry>
        </mxCell>
        <mxCell id="MlaJDnqdPZSA0U_lzP1A-98" value="" style="endArrow=classic;html=1;rounded=0;exitX=1;exitY=0.5;exitDx=0;exitDy=0;entryX=0;entryY=0.5;entryDx=0;entryDy=0;" edge="1" parent="MlaJDnqdPZSA0U_lzP1A-82" source="MlaJDnqdPZSA0U_lzP1A-84" target="MlaJDnqdPZSA0U_lzP1A-89">
          <mxGeometry width="50" height="50" relative="1" as="geometry">
            <mxPoint x="110.42774489048905" y="71.65195824224233" as="sourcePoint" />
            <mxPoint x="162.98351397168852" y="45.36997327928152" as="targetPoint" />
          </mxGeometry>
        </mxCell>
        <mxCell id="MlaJDnqdPZSA0U_lzP1A-99" value="" style="endArrow=classic;html=1;rounded=0;exitX=1;exitY=0.5;exitDx=0;exitDy=0;entryX=0;entryY=0.5;entryDx=0;entryDy=0;" edge="1" parent="MlaJDnqdPZSA0U_lzP1A-82" source="MlaJDnqdPZSA0U_lzP1A-84" target="MlaJDnqdPZSA0U_lzP1A-90">
          <mxGeometry width="50" height="50" relative="1" as="geometry">
            <mxPoint x="127.94633458422223" y="82.16475222742665" as="sourcePoint" />
            <mxPoint x="180.50210366542166" y="55.88276726446583" as="targetPoint" />
          </mxGeometry>
        </mxCell>
        <mxCell id="MlaJDnqdPZSA0U_lzP1A-100" value="" style="endArrow=classic;html=1;rounded=0;exitX=1;exitY=0.5;exitDx=0;exitDy=0;entryX=0;entryY=0.5;entryDx=0;entryDy=0;" edge="1" parent="MlaJDnqdPZSA0U_lzP1A-82" source="MlaJDnqdPZSA0U_lzP1A-84" target="MlaJDnqdPZSA0U_lzP1A-91">
          <mxGeometry width="50" height="50" relative="1" as="geometry">
            <mxPoint x="145.46492427795533" y="92.67754621261096" as="sourcePoint" />
            <mxPoint x="198.02069335915485" y="66.39556124965016" as="targetPoint" />
          </mxGeometry>
        </mxCell>
        <mxCell id="MlaJDnqdPZSA0U_lzP1A-101" value="" style="endArrow=classic;html=1;rounded=0;exitX=1;exitY=0.5;exitDx=0;exitDy=0;entryX=0;entryY=0.5;entryDx=0;entryDy=0;" edge="1" parent="MlaJDnqdPZSA0U_lzP1A-82" source="MlaJDnqdPZSA0U_lzP1A-84" target="MlaJDnqdPZSA0U_lzP1A-92">
          <mxGeometry width="50" height="50" relative="1" as="geometry">
            <mxPoint x="162.98351397168852" y="103.1903401977953" as="sourcePoint" />
            <mxPoint x="215.53928305288795" y="76.90835523483447" as="targetPoint" />
          </mxGeometry>
        </mxCell>
        <mxCell id="MlaJDnqdPZSA0U_lzP1A-102" value="" style="endArrow=classic;html=1;rounded=0;exitX=1;exitY=0.5;exitDx=0;exitDy=0;entryX=0.5;entryY=0;entryDx=0;entryDy=0;" edge="1" parent="MlaJDnqdPZSA0U_lzP1A-82" source="MlaJDnqdPZSA0U_lzP1A-88" target="MlaJDnqdPZSA0U_lzP1A-83">
          <mxGeometry width="50" height="50" relative="1" as="geometry">
            <mxPoint x="338.16941090902" y="161.01070711630905" as="sourcePoint" />
            <mxPoint x="425.7623593776857" y="108.44673719038745" as="targetPoint" />
          </mxGeometry>
        </mxCell>
        <mxCell id="MlaJDnqdPZSA0U_lzP1A-103" value="" style="endArrow=classic;html=1;rounded=0;exitX=1;exitY=0.5;exitDx=0;exitDy=0;entryX=0.5;entryY=0;entryDx=0;entryDy=0;" edge="1" parent="MlaJDnqdPZSA0U_lzP1A-82" source="MlaJDnqdPZSA0U_lzP1A-91" target="MlaJDnqdPZSA0U_lzP1A-83">
          <mxGeometry width="50" height="50" relative="1" as="geometry">
            <mxPoint x="425.7623593776857" y="37.485377790393265" as="sourcePoint" />
            <mxPoint x="483.5737053670052" y="137.35692064964434" as="targetPoint" />
          </mxGeometry>
        </mxCell>
        <mxCell id="MlaJDnqdPZSA0U_lzP1A-104" value="" style="endArrow=classic;html=1;rounded=0;exitX=1;exitY=0.5;exitDx=0;exitDy=0;entryX=0.5;entryY=0;entryDx=0;entryDy=0;" edge="1" parent="MlaJDnqdPZSA0U_lzP1A-82" source="MlaJDnqdPZSA0U_lzP1A-90" target="MlaJDnqdPZSA0U_lzP1A-83">
          <mxGeometry width="50" height="50" relative="1" as="geometry">
            <mxPoint x="373.2065902964863" y="63.76736275335408" as="sourcePoint" />
            <mxPoint x="250.57646244035425" y="129.47232516075607" as="targetPoint" />
          </mxGeometry>
        </mxCell>
        <mxCell id="MlaJDnqdPZSA0U_lzP1A-105" value="" style="endArrow=classic;html=1;rounded=0;exitX=1;exitY=0.5;exitDx=0;exitDy=0;entryX=0.5;entryY=0;entryDx=0;entryDy=0;" edge="1" parent="MlaJDnqdPZSA0U_lzP1A-82" source="MlaJDnqdPZSA0U_lzP1A-92" target="MlaJDnqdPZSA0U_lzP1A-83">
          <mxGeometry width="50" height="50" relative="1" as="geometry">
            <mxPoint x="478.3181284588852" y="63.76736275335408" as="sourcePoint" />
            <mxPoint x="536.1294744482046" y="163.63890561260516" as="targetPoint" />
          </mxGeometry>
        </mxCell>
        <mxCell id="MlaJDnqdPZSA0U_lzP1A-106" value="" style="endArrow=classic;html=1;rounded=0;exitX=1;exitY=0.5;exitDx=0;exitDy=0;entryX=0.5;entryY=0;entryDx=0;entryDy=0;" edge="1" parent="MlaJDnqdPZSA0U_lzP1A-82" source="MlaJDnqdPZSA0U_lzP1A-89" target="MlaJDnqdPZSA0U_lzP1A-83">
          <mxGeometry width="50" height="50" relative="1" as="geometry">
            <mxPoint x="268.09505213408744" y="76.90835523483447" as="sourcePoint" />
            <mxPoint x="325.90639812340686" y="176.77989809408555" as="targetPoint" />
          </mxGeometry>
        </mxCell>
        <mxCell id="MlaJDnqdPZSA0U_lzP1A-107" value="" style="endArrow=classic;html=1;rounded=0;exitX=1;exitY=0.5;exitDx=0;exitDy=0;entryX=0;entryY=0.5;entryDx=0;entryDy=0;" edge="1" parent="MlaJDnqdPZSA0U_lzP1A-82" source="MlaJDnqdPZSA0U_lzP1A-87" target="MlaJDnqdPZSA0U_lzP1A-88">
          <mxGeometry width="50" height="50" relative="1" as="geometry">
            <mxPoint x="443.280949071419" y="171.52350110149337" as="sourcePoint" />
            <mxPoint x="530.8738975400847" y="118.95953117557177" as="targetPoint" />
          </mxGeometry>
        </mxCell>
        <mxCell id="MlaJDnqdPZSA0U_lzP1A-108" value="" style="endArrow=classic;html=1;rounded=0;entryX=0;entryY=0.5;entryDx=0;entryDy=0;exitX=1;exitY=0.5;exitDx=0;exitDy=0;" edge="1" parent="MlaJDnqdPZSA0U_lzP1A-82" source="MlaJDnqdPZSA0U_lzP1A-87" target="MlaJDnqdPZSA0U_lzP1A-92">
          <mxGeometry width="50" height="50" relative="1" as="geometry">
            <mxPoint x="-432.64853561523864" y="213.5746770422307" as="sourcePoint" />
            <mxPoint x="-345.0555871465729" y="161.01070711630905" as="targetPoint" />
          </mxGeometry>
        </mxCell>
        <mxCell id="MlaJDnqdPZSA0U_lzP1A-109" value="" style="endArrow=classic;html=1;rounded=0;exitX=1;exitY=0.5;exitDx=0;exitDy=0;entryX=0;entryY=0.5;entryDx=0;entryDy=0;" edge="1" parent="MlaJDnqdPZSA0U_lzP1A-82" source="MlaJDnqdPZSA0U_lzP1A-86" target="MlaJDnqdPZSA0U_lzP1A-91">
          <mxGeometry width="50" height="50" relative="1" as="geometry">
            <mxPoint x="-467.6857150027048" y="213.5746770422307" as="sourcePoint" />
            <mxPoint x="-380.0927665340392" y="161.01070711630905" as="targetPoint" />
          </mxGeometry>
        </mxCell>
        <mxCell id="MlaJDnqdPZSA0U_lzP1A-110" value="" style="endArrow=classic;html=1;rounded=0;exitX=1;exitY=0.5;exitDx=0;exitDy=0;entryX=0;entryY=0.5;entryDx=0;entryDy=0;" edge="1" parent="MlaJDnqdPZSA0U_lzP1A-82" source="MlaJDnqdPZSA0U_lzP1A-85" target="MlaJDnqdPZSA0U_lzP1A-90">
          <mxGeometry width="50" height="50" relative="1" as="geometry">
            <mxPoint x="-362.57417684030605" y="224.08747102741498" as="sourcePoint" />
            <mxPoint x="-274.98122837164027" y="171.52350110149337" as="targetPoint" />
          </mxGeometry>
        </mxCell>
        <mxCell id="MlaJDnqdPZSA0U_lzP1A-111" value="" style="endArrow=classic;html=1;rounded=0;entryX=0;entryY=0.5;entryDx=0;entryDy=0;exitX=1;exitY=0.5;exitDx=0;exitDy=0;" edge="1" parent="MlaJDnqdPZSA0U_lzP1A-82" source="MlaJDnqdPZSA0U_lzP1A-85" target="MlaJDnqdPZSA0U_lzP1A-89">
          <mxGeometry width="50" height="50" relative="1" as="geometry">
            <mxPoint x="-450.1671253089718" y="224.08747102741498" as="sourcePoint" />
            <mxPoint x="-362.57417684030605" y="171.52350110149337" as="targetPoint" />
          </mxGeometry>
        </mxCell>
        <mxCell id="MlaJDnqdPZSA0U_lzP1A-112" value="" style="endArrow=classic;html=1;rounded=0;exitX=1;exitY=0.5;exitDx=0;exitDy=0;entryX=0;entryY=0.5;entryDx=0;entryDy=0;" edge="1" parent="MlaJDnqdPZSA0U_lzP1A-82" source="MlaJDnqdPZSA0U_lzP1A-85" target="MlaJDnqdPZSA0U_lzP1A-88">
          <mxGeometry width="50" height="50" relative="1" as="geometry">
            <mxPoint x="548.3924872338177" y="108.44673719038745" as="sourcePoint" />
            <mxPoint x="635.9854357024836" y="55.88276726446583" as="targetPoint" />
          </mxGeometry>
        </mxCell>
        <mxCell id="MlaJDnqdPZSA0U_lzP1A-113" value="" style="endArrow=classic;html=1;rounded=0;exitX=1;exitY=0.5;exitDx=0;exitDy=0;entryX=0;entryY=0.5;entryDx=0;entryDy=0;" edge="1" parent="MlaJDnqdPZSA0U_lzP1A-82" source="MlaJDnqdPZSA0U_lzP1A-86" target="MlaJDnqdPZSA0U_lzP1A-92">
          <mxGeometry width="50" height="50" relative="1" as="geometry">
            <mxPoint x="-345.0555871465729" y="234.60026501259932" as="sourcePoint" />
            <mxPoint x="-257.46263867790714" y="182.0362950866777" as="targetPoint" />
          </mxGeometry>
        </mxCell>
        <mxCell id="MlaJDnqdPZSA0U_lzP1A-114" value="" style="endArrow=classic;html=1;rounded=0;entryX=0;entryY=0.5;entryDx=0;entryDy=0;exitX=1;exitY=0.5;exitDx=0;exitDy=0;" edge="1" parent="MlaJDnqdPZSA0U_lzP1A-82" source="MlaJDnqdPZSA0U_lzP1A-85" target="MlaJDnqdPZSA0U_lzP1A-91">
          <mxGeometry width="50" height="50" relative="1" as="geometry">
            <mxPoint x="-292.4998180653734" y="224.08747102741498" as="sourcePoint" />
            <mxPoint x="-204.90686959670765" y="171.52350110149337" as="targetPoint" />
          </mxGeometry>
        </mxCell>
        <mxCell id="MlaJDnqdPZSA0U_lzP1A-115" value="" style="endArrow=classic;html=1;rounded=0;exitX=1;exitY=0.5;exitDx=0;exitDy=0;entryX=0;entryY=0.5;entryDx=0;entryDy=0;" edge="1" parent="MlaJDnqdPZSA0U_lzP1A-82" source="MlaJDnqdPZSA0U_lzP1A-85" target="MlaJDnqdPZSA0U_lzP1A-92">
          <mxGeometry width="50" height="50" relative="1" as="geometry">
            <mxPoint x="-380.0927665340392" y="276.65144095333665" as="sourcePoint" />
            <mxPoint x="-292.4998180653734" y="224.08747102741498" as="targetPoint" />
          </mxGeometry>
        </mxCell>
        <mxCell id="MlaJDnqdPZSA0U_lzP1A-116" value="" style="endArrow=classic;html=1;rounded=0;entryX=0;entryY=0.5;entryDx=0;entryDy=0;exitX=1;exitY=0.5;exitDx=0;exitDy=0;" edge="1" parent="MlaJDnqdPZSA0U_lzP1A-82" source="MlaJDnqdPZSA0U_lzP1A-86" target="MlaJDnqdPZSA0U_lzP1A-90">
          <mxGeometry width="50" height="50" relative="1" as="geometry">
            <mxPoint x="-467.6857150027048" y="276.65144095333665" as="sourcePoint" />
            <mxPoint x="-380.0927665340392" y="224.08747102741498" as="targetPoint" />
          </mxGeometry>
        </mxCell>
        <mxCell id="MlaJDnqdPZSA0U_lzP1A-117" value="" style="endArrow=classic;html=1;rounded=0;entryX=0;entryY=0.5;entryDx=0;entryDy=0;exitX=1;exitY=0.5;exitDx=0;exitDy=0;" edge="1" parent="MlaJDnqdPZSA0U_lzP1A-82" source="MlaJDnqdPZSA0U_lzP1A-86" target="MlaJDnqdPZSA0U_lzP1A-89">
          <mxGeometry width="50" height="50" relative="1" as="geometry">
            <mxPoint x="-327.5369974528398" y="224.08747102741498" as="sourcePoint" />
            <mxPoint x="-239.944048984174" y="171.52350110149337" as="targetPoint" />
          </mxGeometry>
        </mxCell>
        <mxCell id="MlaJDnqdPZSA0U_lzP1A-118" value="" style="endArrow=classic;html=1;rounded=0;entryX=0;entryY=0.5;entryDx=0;entryDy=0;exitX=1;exitY=0.5;exitDx=0;exitDy=0;" edge="1" parent="MlaJDnqdPZSA0U_lzP1A-82" source="MlaJDnqdPZSA0U_lzP1A-86" target="MlaJDnqdPZSA0U_lzP1A-88">
          <mxGeometry width="50" height="50" relative="1" as="geometry">
            <mxPoint x="-345.0555871465729" y="234.60026501259932" as="sourcePoint" />
            <mxPoint x="-257.46263867790714" y="182.0362950866777" as="targetPoint" />
          </mxGeometry>
        </mxCell>
        <mxCell id="MlaJDnqdPZSA0U_lzP1A-119" value="" style="endArrow=classic;html=1;rounded=0;entryX=0;entryY=0.5;entryDx=0;entryDy=0;exitX=1;exitY=0.5;exitDx=0;exitDy=0;" edge="1" parent="MlaJDnqdPZSA0U_lzP1A-82" source="MlaJDnqdPZSA0U_lzP1A-87" target="MlaJDnqdPZSA0U_lzP1A-91">
          <mxGeometry width="50" height="50" relative="1" as="geometry">
            <mxPoint x="-257.46263867790714" y="308.1898229088896" as="sourcePoint" />
            <mxPoint x="-169.86969020924133" y="255.62585298296798" as="targetPoint" />
          </mxGeometry>
        </mxCell>
        <mxCell id="MlaJDnqdPZSA0U_lzP1A-120" value="" style="endArrow=classic;html=1;rounded=0;exitX=1;exitY=0.5;exitDx=0;exitDy=0;entryX=0;entryY=0.5;entryDx=0;entryDy=0;" edge="1" parent="MlaJDnqdPZSA0U_lzP1A-82" source="MlaJDnqdPZSA0U_lzP1A-87" target="MlaJDnqdPZSA0U_lzP1A-90">
          <mxGeometry width="50" height="50" relative="1" as="geometry">
            <mxPoint x="548.3924872338177" y="203.06188305704637" as="sourcePoint" />
            <mxPoint x="635.9854357024836" y="150.49791313112476" as="targetPoint" />
          </mxGeometry>
        </mxCell>
        <mxCell id="MlaJDnqdPZSA0U_lzP1A-121" value="" style="endArrow=classic;html=1;rounded=0;exitX=1;exitY=0.5;exitDx=0;exitDy=0;entryX=0;entryY=0.5;entryDx=0;entryDy=0;" edge="1" parent="MlaJDnqdPZSA0U_lzP1A-82" source="MlaJDnqdPZSA0U_lzP1A-87" target="MlaJDnqdPZSA0U_lzP1A-89">
          <mxGeometry width="50" height="50" relative="1" as="geometry">
            <mxPoint x="495.8367181526184" y="192.54908907186203" as="sourcePoint" />
            <mxPoint x="583.429666621284" y="139.98511914594042" as="targetPoint" />
          </mxGeometry>
        </mxCell>
        <mxCell id="MlaJDnqdPZSA0U_lzP1A-131" value="" style="rounded=0;whiteSpace=wrap;html=1;fillColor=#FF9933;strokeColor=none;" vertex="1" parent="1">
          <mxGeometry x="355" y="251" width="10" height="199" as="geometry" />
        </mxCell>
        <mxCell id="MlaJDnqdPZSA0U_lzP1A-132" value="" style="rounded=0;whiteSpace=wrap;html=1;fillColor=#FF9933;strokeColor=none;" vertex="1" parent="1">
          <mxGeometry x="475" y="251" width="10" height="199" as="geometry" />
        </mxCell>
        <mxCell id="MlaJDnqdPZSA0U_lzP1A-133" value="" style="rounded=0;whiteSpace=wrap;html=1;fillColor=#FF9933;strokeColor=none;" vertex="1" parent="1">
          <mxGeometry x="755" y="251" width="10" height="199" as="geometry" />
        </mxCell>
        <mxCell id="MlaJDnqdPZSA0U_lzP1A-134" value="" style="rounded=0;whiteSpace=wrap;html=1;fillColor=#FF9933;strokeColor=none;" vertex="1" parent="1">
          <mxGeometry x="610" y="196" width="10" height="194" as="geometry" />
        </mxCell>
        <mxCell id="MlaJDnqdPZSA0U_lzP1A-137" value="" style="shape=waypoint;sketch=0;fillStyle=solid;size=6;pointerEvents=1;points=[];fillColor=#66FF66;resizable=0;rotatable=0;perimeter=centerPerimeter;snapToPoint=1;strokeColor=#99FF99;" vertex="1" parent="1">
          <mxGeometry x="130" y="260" width="20" height="20" as="geometry" />
        </mxCell>
        <mxCell id="MlaJDnqdPZSA0U_lzP1A-138" value="" style="shape=waypoint;sketch=0;fillStyle=solid;size=6;pointerEvents=1;points=[];fillColor=#66FF66;resizable=0;rotatable=0;perimeter=centerPerimeter;snapToPoint=1;strokeColor=#99FF99;" vertex="1" parent="1">
          <mxGeometry x="120" y="344" width="20" height="20" as="geometry" />
        </mxCell>
        <mxCell id="MlaJDnqdPZSA0U_lzP1A-139" value="" style="shape=waypoint;sketch=0;fillStyle=solid;size=6;pointerEvents=1;points=[];fillColor=#66FF66;resizable=0;rotatable=0;perimeter=centerPerimeter;snapToPoint=1;strokeColor=#99FF99;" vertex="1" parent="1">
          <mxGeometry x="170" y="390" width="20" height="20" as="geometry" />
        </mxCell>
        <mxCell id="MlaJDnqdPZSA0U_lzP1A-140" value="" style="shape=waypoint;sketch=0;fillStyle=solid;size=6;pointerEvents=1;points=[];fillColor=#66FF66;resizable=0;rotatable=0;perimeter=centerPerimeter;snapToPoint=1;strokeColor=#99FF99;" vertex="1" parent="1">
          <mxGeometry x="150" y="317" width="20" height="20" as="geometry" />
        </mxCell>
        <mxCell id="MlaJDnqdPZSA0U_lzP1A-141" value="" style="shape=waypoint;sketch=0;fillStyle=solid;size=6;pointerEvents=1;points=[];fillColor=#66FF66;resizable=0;rotatable=0;perimeter=centerPerimeter;snapToPoint=1;strokeColor=#99FF99;" vertex="1" parent="1">
          <mxGeometry x="196" y="283" width="20" height="20" as="geometry" />
        </mxCell>
        <mxCell id="MlaJDnqdPZSA0U_lzP1A-142" value="" style="shape=waypoint;sketch=0;fillStyle=solid;size=6;pointerEvents=1;points=[];fillColor=#66FF66;resizable=0;rotatable=0;perimeter=centerPerimeter;snapToPoint=1;strokeColor=#99FF99;" vertex="1" parent="1">
          <mxGeometry x="307.58" y="270" width="20" height="20" as="geometry" />
        </mxCell>
        <mxCell id="MlaJDnqdPZSA0U_lzP1A-143" value="" style="shape=waypoint;sketch=0;fillStyle=solid;size=6;pointerEvents=1;points=[];fillColor=#66FF66;resizable=0;rotatable=0;perimeter=centerPerimeter;snapToPoint=1;strokeColor=#99FF99;" vertex="1" parent="1">
          <mxGeometry x="276.5" y="370" width="20" height="20" as="geometry" />
        </mxCell>
        <mxCell id="MlaJDnqdPZSA0U_lzP1A-144" value="" style="shape=waypoint;sketch=0;fillStyle=solid;size=6;pointerEvents=1;points=[];fillColor=#66FF66;resizable=0;rotatable=0;perimeter=centerPerimeter;snapToPoint=1;strokeColor=#99FF99;" vertex="1" parent="1">
          <mxGeometry x="327.58" y="397" width="20" height="20" as="geometry" />
        </mxCell>
        <mxCell id="MlaJDnqdPZSA0U_lzP1A-145" value="" style="shape=waypoint;sketch=0;fillStyle=solid;size=6;pointerEvents=1;points=[];fillColor=#66FF66;resizable=0;rotatable=0;perimeter=centerPerimeter;snapToPoint=1;strokeColor=#99FF99;" vertex="1" parent="1">
          <mxGeometry x="220.76" y="220" width="20" height="20" as="geometry" />
        </mxCell>
        <mxCell id="MlaJDnqdPZSA0U_lzP1A-146" value="" style="shape=waypoint;sketch=0;fillStyle=solid;size=6;pointerEvents=1;points=[];fillColor=#66FF66;resizable=0;rotatable=0;perimeter=centerPerimeter;snapToPoint=1;strokeColor=#99FF99;" vertex="1" parent="1">
          <mxGeometry x="256.5" y="280" width="20" height="20" as="geometry" />
        </mxCell>
        <mxCell id="MlaJDnqdPZSA0U_lzP1A-147" value="" style="shape=waypoint;sketch=0;fillStyle=solid;size=6;pointerEvents=1;points=[];fillColor=#66FF66;resizable=0;rotatable=0;perimeter=centerPerimeter;snapToPoint=1;strokeColor=#99FF99;" vertex="1" parent="1">
          <mxGeometry x="299.5" y="337" width="20" height="20" as="geometry" />
        </mxCell>
        <mxCell id="MlaJDnqdPZSA0U_lzP1A-148" value="" style="shape=waypoint;sketch=0;fillStyle=solid;size=6;pointerEvents=1;points=[];fillColor=#66FF66;resizable=0;rotatable=0;perimeter=centerPerimeter;snapToPoint=1;strokeColor=#99FF99;" vertex="1" parent="1">
          <mxGeometry x="380" y="263" width="20" height="20" as="geometry" />
        </mxCell>
        <mxCell id="MlaJDnqdPZSA0U_lzP1A-149" value="" style="shape=waypoint;sketch=0;fillStyle=solid;size=6;pointerEvents=1;points=[];fillColor=#66FF66;resizable=0;rotatable=0;perimeter=centerPerimeter;snapToPoint=1;strokeColor=#99FF99;" vertex="1" parent="1">
          <mxGeometry x="430" y="303" width="20" height="20" as="geometry" />
        </mxCell>
        <mxCell id="MlaJDnqdPZSA0U_lzP1A-150" value="" style="shape=waypoint;sketch=0;fillStyle=solid;size=6;pointerEvents=1;points=[];fillColor=#66FF66;resizable=0;rotatable=0;perimeter=centerPerimeter;snapToPoint=1;strokeColor=#99FF99;" vertex="1" parent="1">
          <mxGeometry x="390" y="377" width="20" height="20" as="geometry" />
        </mxCell>
        <mxCell id="MlaJDnqdPZSA0U_lzP1A-151" value="" style="shape=waypoint;sketch=0;fillStyle=solid;size=6;pointerEvents=1;points=[];fillColor=#66FF66;resizable=0;rotatable=0;perimeter=centerPerimeter;snapToPoint=1;strokeColor=#99FF99;" vertex="1" parent="1">
          <mxGeometry x="380" y="330" width="20" height="20" as="geometry" />
        </mxCell>
        <mxCell id="MlaJDnqdPZSA0U_lzP1A-152" value="" style="shape=waypoint;sketch=0;fillStyle=solid;size=6;pointerEvents=1;points=[];fillColor=#66FF66;resizable=0;rotatable=0;perimeter=centerPerimeter;snapToPoint=1;strokeColor=#99FF99;" vertex="1" parent="1">
          <mxGeometry x="414" y="350" width="20" height="20" as="geometry" />
        </mxCell>
        <mxCell id="MlaJDnqdPZSA0U_lzP1A-153" value="" style="shape=waypoint;sketch=0;fillStyle=solid;size=6;pointerEvents=1;points=[];fillColor=#66FF66;resizable=0;rotatable=0;perimeter=centerPerimeter;snapToPoint=1;strokeColor=#99FF99;" vertex="1" parent="1">
          <mxGeometry x="434" y="410" width="20" height="20" as="geometry" />
        </mxCell>
        <mxCell id="MlaJDnqdPZSA0U_lzP1A-154" value="" style="shape=waypoint;sketch=0;fillStyle=solid;size=6;pointerEvents=1;points=[];fillColor=#66FF66;resizable=0;rotatable=0;perimeter=centerPerimeter;snapToPoint=1;strokeColor=#99FF99;" vertex="1" parent="1">
          <mxGeometry x="620" y="227" width="20" height="20" as="geometry" />
        </mxCell>
        <mxCell id="MlaJDnqdPZSA0U_lzP1A-155" value="" style="shape=waypoint;sketch=0;fillStyle=solid;size=6;pointerEvents=1;points=[];fillColor=#66FF66;resizable=0;rotatable=0;perimeter=centerPerimeter;snapToPoint=1;strokeColor=#99FF99;" vertex="1" parent="1">
          <mxGeometry x="650" y="307" width="20" height="20" as="geometry" />
        </mxCell>
        <mxCell id="MlaJDnqdPZSA0U_lzP1A-156" value="" style="shape=waypoint;sketch=0;fillStyle=solid;size=6;pointerEvents=1;points=[];fillColor=#66FF66;resizable=0;rotatable=0;perimeter=centerPerimeter;snapToPoint=1;strokeColor=#99FF99;" vertex="1" parent="1">
          <mxGeometry x="630" y="270" width="20" height="20" as="geometry" />
        </mxCell>
        <mxCell id="MlaJDnqdPZSA0U_lzP1A-157" value="" style="shape=waypoint;sketch=0;fillStyle=solid;size=6;pointerEvents=1;points=[];fillColor=#66FF66;resizable=0;rotatable=0;perimeter=centerPerimeter;snapToPoint=1;strokeColor=#99FF99;" vertex="1" parent="1">
          <mxGeometry x="660" y="263" width="20" height="20" as="geometry" />
        </mxCell>
        <mxCell id="MlaJDnqdPZSA0U_lzP1A-158" value="" style="shape=waypoint;sketch=0;fillStyle=solid;size=6;pointerEvents=1;points=[];fillColor=#66FF66;resizable=0;rotatable=0;perimeter=centerPerimeter;snapToPoint=1;strokeColor=#99FF99;" vertex="1" parent="1">
          <mxGeometry x="720" y="260" width="20" height="20" as="geometry" />
        </mxCell>
        <mxCell id="MlaJDnqdPZSA0U_lzP1A-159" value="" style="shape=waypoint;sketch=0;fillStyle=solid;size=6;pointerEvents=1;points=[];fillColor=#66FF66;resizable=0;rotatable=0;perimeter=centerPerimeter;snapToPoint=1;strokeColor=#99FF99;" vertex="1" parent="1">
          <mxGeometry x="690" y="300" width="20" height="20" as="geometry" />
        </mxCell>
        <mxCell id="MlaJDnqdPZSA0U_lzP1A-160" value="" style="shape=waypoint;sketch=0;fillStyle=solid;size=6;pointerEvents=1;points=[];fillColor=#66FF66;resizable=0;rotatable=0;perimeter=centerPerimeter;snapToPoint=1;strokeColor=#99FF99;" vertex="1" parent="1">
          <mxGeometry x="720" y="410" width="20" height="20" as="geometry" />
        </mxCell>
        <mxCell id="MlaJDnqdPZSA0U_lzP1A-161" value="" style="shape=waypoint;sketch=0;fillStyle=solid;size=6;pointerEvents=1;points=[];fillColor=#66FF66;resizable=0;rotatable=0;perimeter=centerPerimeter;snapToPoint=1;strokeColor=#99FF99;" vertex="1" parent="1">
          <mxGeometry x="730" y="420" width="20" height="20" as="geometry" />
        </mxCell>
        <mxCell id="MlaJDnqdPZSA0U_lzP1A-162" value="" style="shape=waypoint;sketch=0;fillStyle=solid;size=6;pointerEvents=1;points=[];fillColor=#66FF66;resizable=0;rotatable=0;perimeter=centerPerimeter;snapToPoint=1;strokeColor=#99FF99;" vertex="1" parent="1">
          <mxGeometry x="630" y="370" width="20" height="20" as="geometry" />
        </mxCell>
        <mxCell id="MlaJDnqdPZSA0U_lzP1A-163" value="" style="shape=waypoint;sketch=0;fillStyle=solid;size=6;pointerEvents=1;points=[];fillColor=#66FF66;resizable=0;rotatable=0;perimeter=centerPerimeter;snapToPoint=1;strokeColor=#99FF99;" vertex="1" parent="1">
          <mxGeometry x="650" y="350" width="20" height="20" as="geometry" />
        </mxCell>
        <mxCell id="MlaJDnqdPZSA0U_lzP1A-164" value="" style="shape=waypoint;sketch=0;fillStyle=solid;size=6;pointerEvents=1;points=[];fillColor=#66FF66;resizable=0;rotatable=0;perimeter=centerPerimeter;snapToPoint=1;strokeColor=#99FF99;" vertex="1" parent="1">
          <mxGeometry x="670" y="377" width="20" height="20" as="geometry" />
        </mxCell>
        <mxCell id="MlaJDnqdPZSA0U_lzP1A-165" value="" style="shape=waypoint;sketch=0;fillStyle=solid;size=6;pointerEvents=1;points=[];fillColor=#66FF66;resizable=0;rotatable=0;perimeter=centerPerimeter;snapToPoint=1;strokeColor=#99FF99;" vertex="1" parent="1">
          <mxGeometry x="690" y="357" width="20" height="20" as="geometry" />
        </mxCell>
        <mxCell id="MlaJDnqdPZSA0U_lzP1A-166" value="" style="shape=waypoint;sketch=0;fillStyle=solid;size=6;pointerEvents=1;points=[];fillColor=#66FF66;resizable=0;rotatable=0;perimeter=centerPerimeter;snapToPoint=1;strokeColor=#99FF99;" vertex="1" parent="1">
          <mxGeometry x="720" y="324" width="20" height="20" as="geometry" />
        </mxCell>
        <mxCell id="MlaJDnqdPZSA0U_lzP1A-167" value="" style="shape=waypoint;sketch=0;fillStyle=solid;size=6;pointerEvents=1;points=[];fillColor=#66FF66;resizable=0;rotatable=0;perimeter=centerPerimeter;snapToPoint=1;strokeColor=#99FF99;" vertex="1" parent="1">
          <mxGeometry x="720" y="377" width="20" height="20" as="geometry" />
        </mxCell>
        <mxCell id="MlaJDnqdPZSA0U_lzP1A-168" value="" style="shape=waypoint;sketch=0;fillStyle=solid;size=6;pointerEvents=1;points=[];fillColor=#66FF66;resizable=0;rotatable=0;perimeter=centerPerimeter;snapToPoint=1;strokeColor=#99FF99;" vertex="1" parent="1">
          <mxGeometry x="677.5" y="243" width="20" height="20" as="geometry" />
        </mxCell>
        <mxCell id="MlaJDnqdPZSA0U_lzP1A-169" value="" style="shape=waypoint;sketch=0;fillStyle=solid;size=6;pointerEvents=1;points=[];fillColor=#66FF66;resizable=0;rotatable=0;perimeter=centerPerimeter;snapToPoint=1;strokeColor=#99FF99;" vertex="1" parent="1">
          <mxGeometry x="256.5" y="330" width="20" height="20" as="geometry" />
        </mxCell>
        <mxCell id="MlaJDnqdPZSA0U_lzP1A-170" value="" style="shape=waypoint;sketch=0;fillStyle=solid;size=6;pointerEvents=1;points=[];fillColor=#66FF66;resizable=0;rotatable=0;perimeter=centerPerimeter;snapToPoint=1;strokeColor=#99FF99;" vertex="1" parent="1">
          <mxGeometry x="287.58" y="300" width="20" height="20" as="geometry" />
        </mxCell>
        <mxCell id="MlaJDnqdPZSA0U_lzP1A-171" value="" style="shape=waypoint;sketch=0;fillStyle=solid;size=6;pointerEvents=1;points=[];fillColor=#66FF66;resizable=0;rotatable=0;perimeter=centerPerimeter;snapToPoint=1;strokeColor=#99FF99;" vertex="1" parent="1">
          <mxGeometry x="170" y="357" width="20" height="20" as="geometry" />
        </mxCell>
        <mxCell id="MlaJDnqdPZSA0U_lzP1A-172" value="" style="shape=waypoint;sketch=0;fillStyle=solid;size=6;pointerEvents=1;points=[];fillColor=#66FF66;resizable=0;rotatable=0;perimeter=centerPerimeter;snapToPoint=1;strokeColor=#99FF99;" vertex="1" parent="1">
          <mxGeometry x="186" y="330" width="20" height="20" as="geometry" />
        </mxCell>
        <mxCell id="MlaJDnqdPZSA0U_lzP1A-173" value="" style="shape=waypoint;sketch=0;fillStyle=solid;size=6;pointerEvents=1;points=[];fillColor=#66FF66;resizable=0;rotatable=0;perimeter=centerPerimeter;snapToPoint=1;strokeColor=#99FF99;" vertex="1" parent="1">
          <mxGeometry x="216" y="402" width="20" height="20" as="geometry" />
        </mxCell>
        <mxCell id="MlaJDnqdPZSA0U_lzP1A-174" value="" style="shape=waypoint;sketch=0;fillStyle=solid;size=6;pointerEvents=1;points=[];fillColor=#66FF66;resizable=0;rotatable=0;perimeter=centerPerimeter;snapToPoint=1;strokeColor=#99FF99;" vertex="1" parent="1">
          <mxGeometry x="120" y="227" width="20" height="20" as="geometry" />
        </mxCell>
        <mxCell id="MlaJDnqdPZSA0U_lzP1A-175" value="" style="shape=waypoint;sketch=0;fillStyle=solid;size=6;pointerEvents=1;points=[];fillColor=#66FF66;resizable=0;rotatable=0;perimeter=centerPerimeter;snapToPoint=1;strokeColor=#99FF99;" vertex="1" parent="1">
          <mxGeometry x="170" y="250" width="20" height="20" as="geometry" />
        </mxCell>
        <mxCell id="MlaJDnqdPZSA0U_lzP1A-176" value="" style="shape=waypoint;sketch=0;fillStyle=solid;size=6;pointerEvents=1;points=[];fillColor=#66FF66;resizable=0;rotatable=0;perimeter=centerPerimeter;snapToPoint=1;strokeColor=#99FF99;" vertex="1" parent="1">
          <mxGeometry x="176" y="283" width="20" height="20" as="geometry" />
        </mxCell>
        <mxCell id="MlaJDnqdPZSA0U_lzP1A-177" value="" style="shape=waypoint;sketch=0;fillStyle=solid;size=6;pointerEvents=1;points=[];fillColor=#66FF66;resizable=0;rotatable=0;perimeter=centerPerimeter;snapToPoint=1;strokeColor=#99FF99;" vertex="1" parent="1">
          <mxGeometry x="120" y="297" width="20" height="20" as="geometry" />
        </mxCell>
        <mxCell id="MlaJDnqdPZSA0U_lzP1A-178" value="" style="shape=waypoint;sketch=0;fillStyle=solid;size=6;pointerEvents=1;points=[];fillColor=#66FF66;resizable=0;rotatable=0;perimeter=centerPerimeter;snapToPoint=1;strokeColor=#99FF99;" vertex="1" parent="1">
          <mxGeometry x="139" y="382" width="20" height="20" as="geometry" />
        </mxCell>
        <mxCell id="MlaJDnqdPZSA0U_lzP1A-179" value="" style="shape=waypoint;sketch=0;fillStyle=solid;size=6;pointerEvents=1;points=[];fillColor=#66FF66;resizable=0;rotatable=0;perimeter=centerPerimeter;snapToPoint=1;strokeColor=#99FF99;" vertex="1" parent="1">
          <mxGeometry x="267.58" y="247" width="20" height="20" as="geometry" />
        </mxCell>
        <mxCell id="MlaJDnqdPZSA0U_lzP1A-180" value="" style="shape=waypoint;sketch=0;fillStyle=solid;size=6;pointerEvents=1;points=[];fillColor=#66FF66;resizable=0;rotatable=0;perimeter=centerPerimeter;snapToPoint=1;strokeColor=#99FF99;" vertex="1" parent="1">
          <mxGeometry x="299.5" y="399.84000000000003" width="20" height="20" as="geometry" />
        </mxCell>
        <mxCell id="MlaJDnqdPZSA0U_lzP1A-181" value="" style="shape=waypoint;sketch=0;fillStyle=solid;size=6;pointerEvents=1;points=[];fillColor=#66FF66;resizable=0;rotatable=0;perimeter=centerPerimeter;snapToPoint=1;strokeColor=#99FF99;" vertex="1" parent="1">
          <mxGeometry x="434" y="263" width="20" height="20" as="geometry" />
        </mxCell>
        <mxCell id="MlaJDnqdPZSA0U_lzP1A-182" value="" style="shape=waypoint;sketch=0;fillStyle=solid;size=6;pointerEvents=1;points=[];fillColor=#66FF66;resizable=0;rotatable=0;perimeter=centerPerimeter;snapToPoint=1;strokeColor=#99FF99;" vertex="1" parent="1">
          <mxGeometry x="365" y="230" width="20" height="20" as="geometry" />
        </mxCell>
        <mxCell id="MlaJDnqdPZSA0U_lzP1A-183" value="" style="shape=waypoint;sketch=0;fillStyle=solid;size=6;pointerEvents=1;points=[];fillColor=#66FF66;resizable=0;rotatable=0;perimeter=centerPerimeter;snapToPoint=1;strokeColor=#99FF99;" vertex="1" parent="1">
          <mxGeometry x="450" y="370" width="20" height="20" as="geometry" />
        </mxCell>
      </root>
    </mxGraphModel>
  </diagram>
</mxfile>
